<?xml version="1.0" encoding="UTF-8" standalone="no"?>
<!-- Created with Inkscape (http://www.inkscape.org/) -->

<svg
   width="100"
   height="100"
   viewBox="0 0 100 100"
   version="1.1"
   id="svg1"
   inkscape:version="1.3.2 (091e20e, 2023-11-25, custom)"
   sodipodi:docname="logo.svg"
   xmlns:inkscape="http://www.inkscape.org/namespaces/inkscape"
   xmlns:sodipodi="http://sodipodi.sourceforge.net/DTD/sodipodi-0.dtd"
   xmlns="http://www.w3.org/2000/svg"
   xmlns:svg="http://www.w3.org/2000/svg">
  <sodipodi:namedview
     id="namedview1"
     pagecolor="#505050"
     bordercolor="#eeeeee"
     borderopacity="1"
     inkscape:showpageshadow="0"
     inkscape:pageopacity="0"
     inkscape:pagecheckerboard="0"
     inkscape:deskcolor="#505050"
     inkscape:document-units="px"
     inkscape:lockguides="false"
     inkscape:zoom="4.485"
     inkscape:cx="81.15942"
     inkscape:cy="36.008919"
     inkscape:window-width="1920"
     inkscape:window-height="1111"
     inkscape:window-x="-9"
     inkscape:window-y="410"
     inkscape:window-maximized="1"
     inkscape:current-layer="layer1" />
  <defs
     id="defs1">
    <inkscape:path-effect
       effect="fillet_chamfer"
       id="path-effect2"
       is_visible="true"
       lpeversion="1"
       nodesatellites_param="F,0,0,1,0,0,0,1 @ F,0,0,1,0,0,0,1 @ F,0,0,1,0,0,0,1 @ F,0,0,1,0,0,0,1"
       radius="0"
       unit="px"
       method="auto"
       mode="F"
       chamfer_steps="1"
       flexible="false"
       use_knot_distance="true"
       apply_no_radius="true"
       apply_with_radius="true"
       only_selected="false"
       hide_knots="false" />
  </defs>
  <g
     inkscape:groupmode="layer"
     id="layer4"
     inkscape:label="Warstwa 2"
     transform="matrix(1.8577824,0,0,1.8577824,-42.815924,-31.277292)" />
  <g
     inkscape:label="Warstwa 1"
     inkscape:groupmode="layer"
     id="layer1"
     transform="matrix(1.8577824,0,0,1.8577824,-42.815924,-31.277292)">
    <g
       id="g15"
       transform="matrix(1.1436474,0,0,1.1436474,-6.5700281,2.0832249)">
      <path
         id="path1"
         d="m 71.7693,37.959866 c 0,6.395289 -2.411887,12.227251 -6.375675,16.6359 C 51.23855,70.339483 57.802945,41.154139 50.315868,27.674304 47.879073,23.287066 43.821658,28.891819 39.020009,28.46828 32.830645,27.922335 25.881331,21.990518 33.187043,17.169613 c 3.927813,-2.591891 8.633444,-4.100561 13.691444,-4.100561 13.746817,0 24.890813,11.143997 24.890813,24.890814 z"
         style="fill:#de1b4a;fill-opacity:1;stroke-width:17.9064"
         sodipodi:nodetypes="sssssss" />
      <path
         style="font-size:50.7273px;line-height:1.25;font-family:Lemon;-inkscape-font-specification:Lemon;letter-spacing:0px;word-spacing:0px;fill:#e8f9fd;stroke-width:1.26818"
         d="m 61.145423,26.163878 -0.405819,12.073097 c 0,4.159639 0.338182,7.659822 1.014546,10.500551 0.710183,2.840729 2.012183,4.802184 3.906002,5.884367 -1.259995,1.1537 -3.976866,4.044958 -6.377959,4.044958 -4.227275,0 -7.555139,-5.279322 -8.535867,-12.110599 H 40.397958 c -0.642546,2.198183 -0.963819,3.889093 -0.963819,5.07273 0,1.149819 0.135273,2.079819 0.405818,2.790001 -2.502547,1.589456 -4.734548,2.384184 -6.696003,2.384184 -3.00982,0 -4.51473,-1.826183 -4.51473,-5.478549 0,-1.826183 0.558,-4.12582 1.674001,-6.898912 1.149819,-2.773093 2.654729,-5.952004 4.51473,-9.536733 1.893819,-3.584729 3.094365,-5.952002 3.601638,-7.101821 -0.372,-1.826183 -1.992681,-3.699309 -1.268183,-5.377094 0.830553,-1.923386 3.449457,-2.130547 5.07273,-2.739274 1.657092,-0.642546 3.432548,-0.963819 5.326367,-0.963819 1.927637,0 3.263456,0.422728 4.007456,1.268183 1.927637,-0.845455 3.517093,-1.268183 4.768366,-1.268183 1.251273,0 2.181274,0.202909 2.790002,0.608728 0.608727,0.405818 1.048364,0.997636 1.31891,1.775455 0.473455,1.352728 0.710182,3.043638 0.710182,5.07273 z m -10.196187,1.166728 h -1.623274 c -6.840002,0 -10.619425,13.89928 -6.797458,13.89928 h 7.862731 c 3.837246,0 2.719046,-13.89928 0.558001,-13.89928 z"
         id="text1"
         transform="scale(0.98011868,1.0202846)"
         aria-label="A"
         sodipodi:nodetypes="ccccsccscsscccscscssccsssss" />
    </g>
  </g>
</svg>
